<svg xmlns="http://www.w3.org/2000/svg" width="23" height="18.072" viewBox="0 0 23 18.072"><defs><style>.a{fill:#136acd;}</style></defs><g transform="translate(0 -54.815)"><path class="a" d="M22.089,61.849a11.3,11.3,0,0,0-6.122-6.122,11.4,11.4,0,0,0-8.933,0A11.3,11.3,0,0,0,.911,61.849a11.474,11.474,0,0,0,.9,10.666.781.781,0,0,0,.693.372H20.5a.781.781,0,0,0,.693-.372,11.474,11.474,0,0,0,.9-10.666ZM10.338,56.939A1.642,1.642,0,1,1,9.857,58.1,1.583,1.583,0,0,1,10.338,56.939ZM4.447,67.477a1.584,1.584,0,0,1-1.162.482,1.584,1.584,0,0,1-1.161-.482,1.642,1.642,0,0,1,0-2.323,1.583,1.583,0,0,1,1.161-.481,1.583,1.583,0,0,1,1.162.481,1.642,1.642,0,0,1,0,2.323Zm2.464-5.75a1.642,1.642,0,0,1-2.323,0,1.643,1.643,0,0,1,1.162-2.8,1.643,1.643,0,0,1,1.162,2.8Zm7.271.109-1.3,4.9a2.44,2.44,0,0,1,.924,1.168,2.469,2.469,0,0,1-1.066,3,2.4,2.4,0,0,1-1.874.257,2.357,2.357,0,0,1-1.5-1.142,2.458,2.458,0,0,1,.552-3.138,2.439,2.439,0,0,1,1.373-.558l1.3-4.9a.811.811,0,0,1,.385-.507.766.766,0,0,1,.616-.083.84.84,0,0,1,.59,1Zm1.906-.109a1.642,1.642,0,1,1,1.162.481A1.582,1.582,0,0,1,16.088,61.727Zm4.787,5.75a1.642,1.642,0,1,1,.481-1.162A1.584,1.584,0,0,1,20.876,67.477Z" transform="translate(0)"/></g></svg>