<svg xmlns="http://www.w3.org/2000/svg" width="24.3" height="20.656" viewBox="0 0 24.3 20.656"><defs><style>.a{fill:none;stroke:#1c252c;stroke-linecap:round;stroke-linejoin:round;stroke-width:1.3px;opacity:0.5;}</style></defs><path class="a" d="M13.88,9.67a4.179,4.179,0,0,1,1.945,3.1,3.372,3.372,0,1,0-1.945-3.1Zm-2.21,6.907A3.373,3.373,0,1,0,8.3,13.2,3.373,3.373,0,0,0,11.67,16.577Zm1.431.23H10.238a4.324,4.324,0,0,0-4.319,4.319v3.5l.009.055.241.075a19.66,19.66,0,0,0,5.872.947,12.056,12.056,0,0,0,5.128-.963l.225-.114h.024v-3.5A4.323,4.323,0,0,0,13.1,16.807Zm5.581-3.482h-2.84a4.157,4.157,0,0,1-1.283,2.9,5.132,5.132,0,0,1,3.666,4.911V22.21a11.623,11.623,0,0,0,4.527-.951l.225-.114H23v-3.5A4.324,4.324,0,0,0,18.681,13.324Zm-12.931-.23a3.351,3.351,0,0,0,1.794-.521A4.175,4.175,0,0,1,9.114,9.912c0-.063.009-.126.009-.189a3.373,3.373,0,1,0-3.373,3.373ZM8.78,16.22A4.16,4.16,0,0,1,7.5,13.34c-.105-.008-.21-.016-.317-.016H4.319A4.324,4.324,0,0,0,0,17.643v3.5l.009.054.241.076a20.25,20.25,0,0,0,4.864.914V21.131A5.133,5.133,0,0,1,8.78,16.22Z" transform="translate(0.65 -5.698)"/></svg>